<svg width="631" height="364" viewBox="0 0 631 364" fill="none" xmlns="http://www.w3.org/2000/svg">
<path d="M487.609 181.834H486.421C486.421 181.36 486.232 180.904 485.897 180.569C485.561 180.233 485.106 180.044 484.631 180.044C484.156 180.044 483.701 180.233 483.365 180.569C483.03 180.904 482.841 181.36 482.841 181.834H481.653C481.653 181.045 481.967 180.287 482.525 179.729C483.084 179.17 483.841 178.856 484.631 178.856C485.421 178.856 486.178 179.17 486.737 179.729C487.295 180.287 487.609 181.045 487.609 181.834Z" fill="white"/>
<path d="M491.807 112.468H490.619C490.619 111.993 490.43 111.538 490.094 111.202C489.759 110.866 489.303 110.678 488.829 110.678C488.354 110.678 487.899 110.866 487.563 111.202C487.227 111.538 487.039 111.993 487.039 112.468H485.851C485.851 111.678 486.164 110.921 486.723 110.362C487.281 109.804 488.039 109.49 488.829 109.49C489.619 109.49 490.376 109.804 490.935 110.362C491.493 110.921 491.807 111.678 491.807 112.468Z" fill="white"/>
<path d="M343.459 353.484H286.844L287.794 351.203C291.517 342.396 291.897 334.84 291.343 326.222L291.184 324.543L338.991 324.401V325.985C339.291 334.551 340.572 343.055 342.809 351.33L343.459 353.484ZM291.675 350.205H339.039C337.244 342.793 336.136 335.232 335.728 327.616L294.653 327.743C295.299 335.353 294.305 343.012 291.739 350.205H291.675Z" fill="#084482"/>
<path d="M270.591 327.585C227.552 327.585 192.687 327.363 191.166 326.809C187.475 325.494 182.659 320.393 182.596 316.766C182.454 308.924 182.121 298.248 181.725 285.876C180.553 248.603 178.937 197.532 181.028 169.273C181.2 166.806 182.297 164.494 184.101 162.802C185.905 161.11 188.281 160.162 190.754 160.148H190.912L439.026 160.513C441.56 160.57 443.974 161.606 445.761 163.405C447.548 165.204 448.569 167.625 448.609 170.16C448.799 178.413 449.069 186.856 449.338 195.394C450.478 231.194 451.651 268.261 447.675 303.222C447.532 304.6 447.453 306.121 447.389 307.705C447.057 315.039 446.629 324.179 437.172 326.048C432.499 326.967 340.671 327.585 270.591 327.585ZM190.77 162.841C188.96 162.853 187.221 163.548 185.902 164.788C184.583 166.028 183.781 167.72 183.657 169.526C181.582 197.643 183.198 248.619 184.37 285.844C184.766 298.216 185.099 308.909 185.242 316.766C185.242 319.062 189.107 323.324 192.053 324.369C197.328 325.446 430.598 324.654 436.665 323.514C444.095 322.04 444.427 314.722 444.744 307.673C444.744 306.089 444.903 304.505 445.061 303.016C449.005 268.166 447.833 231.273 446.645 195.584C446.376 187.014 446.106 178.587 445.916 170.318C445.892 168.468 445.153 166.699 443.854 165.382C442.555 164.065 440.796 163.302 438.946 163.253L190.849 162.889L190.77 162.841Z" fill="#084482"/>
<path fill-rule="evenodd" clip-rule="evenodd" d="M432.04 169.067L198.263 168.75C196.338 168.632 194.439 169.245 192.947 170.467C191.455 171.689 190.479 173.429 190.216 175.34C187.602 206.625 191.166 271.968 191.705 298.184C191.705 300.751 195.934 304.521 198.944 305.534C202.492 306.659 424.642 305.804 430.076 304.869C439.818 303.158 438.154 293.179 438.978 286.779C443.604 250.646 440.768 211.361 439.849 176.021C439.692 174.08 438.792 172.274 437.338 170.979C435.883 169.684 433.986 168.999 432.04 169.067Z" fill="#00AEFF"/>
<path d="M363.814 362.561H266.536C264.935 362.561 263.4 361.925 262.268 360.793C261.137 359.661 260.501 358.126 260.501 356.526C260.501 354.925 261.137 353.39 262.268 352.258C263.4 351.126 264.935 350.49 266.536 350.49H363.814C365.415 350.49 366.95 351.126 368.081 352.258C369.213 353.39 369.849 354.925 369.849 356.526C369.849 358.126 369.213 359.661 368.081 360.793C366.95 361.925 365.415 362.561 363.814 362.561ZM266.536 353.057C265.675 353.115 264.868 353.499 264.279 354.13C263.69 354.761 263.362 355.591 263.362 356.454C263.362 357.318 263.69 358.148 264.279 358.779C264.868 359.41 265.675 359.793 266.536 359.852H363.814C364.675 359.793 365.482 359.41 366.071 358.779C366.66 358.148 366.987 357.318 366.987 356.454C366.987 355.591 366.66 354.761 366.071 354.13C365.482 353.499 364.675 353.115 363.814 353.057H266.536Z" fill="#084482"/>
<path d="M198.801 318.381C203.173 318.381 203.173 311.601 198.801 311.601C194.429 311.601 194.429 318.381 198.801 318.381Z" fill="#084482"/>
<path d="M212.488 318.381C216.86 318.381 216.86 311.601 212.488 311.601C208.116 311.601 208.116 318.381 212.488 318.381Z" fill="#084482"/>
<path d="M226.237 318.381C230.609 318.381 230.609 311.601 226.237 311.601C221.865 311.601 221.865 318.381 226.237 318.381Z" fill="#084482"/>
<path d="M315.167 167.039C315.587 167.039 315.99 166.872 316.287 166.575C316.584 166.278 316.751 165.875 316.751 165.455C316.751 165.035 316.584 164.632 316.287 164.335C315.99 164.038 315.587 163.871 315.167 163.871C314.747 163.871 314.344 164.038 314.047 164.335C313.75 164.632 313.583 165.035 313.583 165.455C313.583 165.875 313.75 166.278 314.047 166.575C314.344 166.872 314.747 167.039 315.167 167.039Z" fill="#084482"/>
<path d="M498.805 356.035H465.286L478.181 313.692H485.911L498.805 356.035Z" fill="#00AEFF"/>
<path d="M501.562 356.035H462.514V360.866H501.562V356.035Z" fill="#00AEFF"/>
<path d="M468.502 345.453L465.286 356.035H498.805L495.574 345.453H468.502Z" fill="#084482"/>
<path d="M471.734 334.856H492.358L489.127 324.274H474.949L471.734 334.856Z" fill="#084482"/>
<path d="M512.555 360.597H519.984V331.798H558.161V360.597H565.606V331.798H573.526V308.813H567.19V306.675H556.355V308.813H522.487V306.675H511.652V308.813H504.761V331.798H512.555V360.597ZM571.071 311.205V311.3L566.414 329.406H558.24L562.849 311.205H571.071ZM549.749 329.406H541.559L546.169 311.205H554.359L549.749 329.406ZM532.99 329.406H524.816L529.425 311.205H537.599L532.99 329.406ZM512.555 311.205H520.745L516.135 329.406H507.945L512.555 311.205Z" fill="#00AEFF"/>
<path d="M253.29 88.0798L256.134 85.2157C256.397 84.943 256.544 84.5789 256.544 84.2C256.544 83.8211 256.397 83.457 256.134 83.1844L253.656 80.7062C253.358 80.3998 253.164 80.0071 253.102 79.584C253.04 79.1609 253.113 78.729 253.311 78.3499L255.342 73.4342C255.467 73.0226 255.719 72.6613 256.062 72.4021C256.405 72.1429 256.822 71.9993 257.251 71.992H260.766C261.155 71.992 261.529 71.8386 261.807 71.5649C262.085 71.2912 262.243 70.9192 262.248 70.5295V66.4669C262.243 66.0771 262.085 65.7052 261.807 65.4315C261.529 65.1577 261.155 65.0043 260.766 65.0043H257.251C256.822 64.997 256.405 64.8534 256.062 64.5942C255.719 64.335 255.467 63.9737 255.342 63.5621L253.311 58.6464C253.113 58.2673 253.04 57.8354 253.102 57.4123C253.164 56.9893 253.358 56.5965 253.656 56.2901L256.134 53.8119C256.397 53.5393 256.544 53.1752 256.544 52.7963C256.544 52.4174 256.397 52.0533 256.134 51.7806L253.29 48.9165C253.015 48.658 252.652 48.5141 252.275 48.5141C251.897 48.5141 251.534 48.658 251.259 48.9165L248.781 51.3947C248.475 51.693 248.082 51.8869 247.659 51.9489C247.236 52.0109 246.804 51.9378 246.425 51.74L241.509 49.7087C241.101 49.5806 240.744 49.327 240.489 48.9842C240.234 48.6413 240.093 48.2267 240.087 47.7993V44.2852C240.087 43.8919 239.931 43.5148 239.653 43.2367C239.375 42.9586 238.998 42.8023 238.604 42.8023H234.542C234.148 42.8023 233.771 42.9586 233.493 43.2367C233.215 43.5148 233.059 43.8919 233.059 44.2852V47.7993C233.053 48.2267 232.912 48.6413 232.657 48.9842C232.402 49.327 232.045 49.5806 231.637 49.7087L226.701 51.74C226.322 51.9378 225.89 52.0109 225.467 51.9489C225.044 51.8869 224.651 51.693 224.345 51.3947L221.866 48.9165C221.594 48.6534 221.23 48.5064 220.851 48.5064C220.472 48.5064 220.108 48.6534 219.835 48.9165L216.971 51.7806C216.708 52.0533 216.561 52.4174 216.561 52.7963C216.561 53.1752 216.708 53.5393 216.971 53.8119L219.449 56.2901C219.747 56.5965 219.941 56.9893 220.003 57.4123C220.065 57.8354 219.992 58.2673 219.794 58.6464L217.763 63.5621C217.639 63.9737 217.387 64.335 217.043 64.5942C216.7 64.8534 216.284 64.997 215.854 65.0043H212.34C211.95 65.0043 211.576 65.1577 211.298 65.4315C211.021 65.7052 210.862 66.0771 210.857 66.4669V70.5295C210.862 70.9192 211.021 71.2912 211.298 71.5649C211.576 71.8386 211.95 71.992 212.34 71.992H215.854C216.284 71.9993 216.7 72.1429 217.043 72.4021C217.387 72.6613 217.639 73.0226 217.763 73.4342L219.794 78.3499C219.992 78.729 220.065 79.1609 220.003 79.584C219.941 80.0071 219.747 80.3998 219.449 80.7062L216.971 83.1844C216.708 83.457 216.561 83.8211 216.561 84.2C216.561 84.5789 216.708 84.943 216.971 85.2157L219.835 88.0798C220.108 88.3429 220.472 88.49 220.851 88.49C221.23 88.49 221.594 88.3429 221.866 88.0798L224.345 85.6016C224.651 85.3034 225.044 85.1094 225.467 85.0474C225.89 84.9854 226.322 85.0585 226.701 85.2563L231.637 87.2876C232.045 87.4158 232.402 87.6693 232.657 88.0122C232.912 88.355 233.053 88.7696 233.059 89.197V92.7111C233.059 93.1044 233.215 93.4816 233.493 93.7597C233.771 94.0378 234.148 94.194 234.542 94.194H238.604C238.998 94.194 239.375 94.0378 239.653 93.7597C239.931 93.4816 240.087 93.1044 240.087 92.7111V89.197C240.093 88.7696 240.234 88.355 240.489 88.0122C240.744 87.6693 241.101 87.4158 241.509 87.2876L246.425 85.2563C246.804 85.0585 247.236 84.9854 247.659 85.0474C248.082 85.1094 248.475 85.3034 248.781 85.6016L251.259 88.0798C251.534 88.3383 251.897 88.4822 252.275 88.4822C252.652 88.4822 253.015 88.3383 253.29 88.0798ZM236.492 80.2593C234.153 80.2593 231.868 79.566 229.924 78.2669C227.98 76.9679 226.464 75.1216 225.569 72.9614C224.675 70.8011 224.441 68.4241 224.897 66.1308C225.353 63.8376 226.479 61.7311 228.132 60.0777C229.786 58.4244 231.892 57.2984 234.185 56.8423C236.479 56.3861 238.856 56.6202 241.016 57.515C243.176 58.4098 245.022 59.9251 246.321 61.8692C247.62 63.8133 248.314 66.099 248.314 68.4372C248.308 71.571 247.061 74.5749 244.845 76.7908C242.629 79.0067 239.625 80.2539 236.492 80.2593Z" fill="#00AEFF"/>
<path d="M280.353 99.4724L279.647 97.0843C279.613 96.9679 279.556 96.8595 279.479 96.7656C279.402 96.6718 279.307 96.5943 279.2 96.5377C279.093 96.4811 278.976 96.4466 278.856 96.4362C278.735 96.4258 278.614 96.4398 278.499 96.4772L276.484 97.1046C276.228 97.1679 275.959 97.1536 275.712 97.0636C275.464 96.9735 275.249 96.8117 275.093 96.5986L273.078 94.0486C272.907 93.8562 272.795 93.6181 272.755 93.3631C272.716 93.1081 272.751 92.8471 272.856 92.6117L273.884 90.689C273.999 90.477 274.025 90.2278 273.957 89.9964C273.889 89.7649 273.732 89.57 273.521 89.4545L271.284 88.2402C271.179 88.1839 271.063 88.1492 270.944 88.1381C270.824 88.1269 270.704 88.1396 270.59 88.1753C270.476 88.2111 270.37 88.2692 270.278 88.3463C270.186 88.4235 270.11 88.5181 270.055 88.6247L269.027 90.6485C268.889 90.8691 268.689 91.0441 268.453 91.1519C268.216 91.2598 267.954 91.2959 267.697 91.2557L264.453 90.9319C264.191 90.9231 263.937 90.8354 263.725 90.6802C263.513 90.5251 263.352 90.3096 263.264 90.0616L262.639 88.0378C262.569 87.8072 262.411 87.6139 262.2 87.5001C261.988 87.3863 261.74 87.3613 261.511 87.4307L259.133 88.1592C259.017 88.1916 258.91 88.2469 258.817 88.3221C258.723 88.3972 258.646 88.4905 258.59 88.5964C258.533 88.7023 258.499 88.8185 258.488 88.9382C258.477 89.0578 258.491 89.1784 258.528 89.2926L259.153 91.3164C259.217 91.5701 259.203 91.8373 259.113 92.083C259.024 92.3287 258.862 92.5412 258.649 92.6926L256.11 94.7164C255.922 94.8956 255.685 95.0129 255.429 95.0527C255.173 95.0925 254.912 95.0528 254.679 94.9391L252.765 93.9069C252.659 93.8506 252.543 93.8159 252.424 93.8048C252.305 93.7936 252.184 93.8063 252.07 93.8421C251.956 93.8778 251.85 93.9359 251.758 94.0131C251.666 94.0902 251.591 94.1848 251.535 94.2914L250.346 96.4772C250.238 96.6957 250.217 96.9479 250.288 97.1815C250.359 97.4151 250.517 97.6122 250.729 97.732L252.644 98.7641C252.865 98.8958 253.042 99.0922 253.15 99.3272C253.258 99.5622 253.292 99.8246 253.248 100.08L252.926 103.358C252.916 103.619 252.828 103.87 252.673 104.08C252.519 104.289 252.305 104.447 252.059 104.532L250.044 105.159C249.813 105.234 249.62 105.396 249.507 105.612C249.394 105.828 249.37 106.079 249.44 106.313L250.165 108.701C250.235 108.932 250.393 109.125 250.604 109.239C250.816 109.353 251.064 109.378 251.294 109.308L253.309 108.681C253.561 108.616 253.827 108.63 254.072 108.72C254.317 108.811 254.528 108.973 254.679 109.187L256.694 111.717C256.874 111.908 256.992 112.15 257.032 112.41C257.071 112.671 257.031 112.937 256.916 113.174L255.888 115.096C255.832 115.203 255.798 115.319 255.786 115.439C255.775 115.558 255.788 115.679 255.824 115.794C255.859 115.909 255.917 116.015 255.994 116.107C256.071 116.199 256.165 116.275 256.271 116.331L258.447 117.505C258.663 117.616 258.912 117.64 259.144 117.572C259.377 117.504 259.574 117.35 259.697 117.14L260.704 115.117C260.84 114.892 261.039 114.713 261.275 114.602C261.512 114.49 261.776 114.451 262.035 114.489L265.279 114.813C265.545 114.818 265.803 114.906 266.016 115.066C266.23 115.226 266.388 115.449 266.468 115.704L267.093 117.727C267.125 117.843 267.18 117.951 267.255 118.045C267.33 118.138 267.423 118.216 267.528 118.273C267.633 118.329 267.749 118.364 267.868 118.375C267.987 118.385 268.107 118.372 268.221 118.335L270.619 117.626C270.847 117.547 271.037 117.384 271.149 117.17C271.262 116.955 271.288 116.706 271.224 116.473L270.599 114.449C270.53 114.197 270.539 113.93 270.625 113.684C270.712 113.438 270.872 113.225 271.083 113.073L273.622 111.049C273.818 110.877 274.058 110.765 274.315 110.726C274.572 110.686 274.835 110.721 275.073 110.826L276.967 111.858C277.181 111.974 277.432 112.001 277.666 111.933C277.9 111.865 278.098 111.707 278.217 111.494L279.385 109.288C279.441 109.182 279.476 109.065 279.487 108.946C279.498 108.826 279.486 108.705 279.45 108.591C279.414 108.476 279.357 108.369 279.28 108.277C279.203 108.185 279.109 108.109 279.003 108.053L277.108 107.021C276.885 106.89 276.706 106.695 276.594 106.46C276.483 106.226 276.444 105.963 276.484 105.706L276.806 102.427C276.817 102.165 276.906 101.911 277.06 101.699C277.214 101.487 277.427 101.325 277.672 101.233L279.688 100.606C279.807 100.578 279.919 100.526 280.018 100.453C280.116 100.38 280.199 100.288 280.261 100.182C280.323 100.076 280.363 99.9584 280.379 99.8365C280.395 99.7146 280.386 99.5908 280.353 99.4724ZM271.284 106.313C270.605 107.588 269.565 108.632 268.294 109.313C267.024 109.994 265.581 110.281 264.148 110.138C262.716 109.994 261.357 109.427 260.246 108.508C259.134 107.589 258.319 106.359 257.904 104.975C257.488 103.59 257.491 102.113 257.913 100.73C258.334 99.3473 259.154 98.1211 260.27 97.2069C261.385 96.2926 262.746 95.7314 264.179 95.5943C265.613 95.4572 267.055 95.7504 268.322 96.4367C269.163 96.8891 269.907 97.5036 270.511 98.245C271.115 98.9865 271.568 99.8404 271.843 100.758C272.118 101.675 272.21 102.638 272.115 103.591C272.019 104.544 271.737 105.469 271.284 106.313Z" fill="#00AEFF"/>
<path d="M628.666 364H1.63683C1.20271 364 0.786382 363.841 0.479418 363.557C0.172454 363.274 0 362.889 0 362.488C0 362.088 0.172454 361.703 0.479418 361.42C0.786382 361.136 1.20271 360.977 1.63683 360.977H628.666C629.1 360.977 629.517 361.136 629.824 361.42C630.131 361.703 630.303 362.088 630.303 362.488C630.303 362.889 630.131 363.274 629.824 363.557C629.517 363.841 629.1 364 628.666 364Z" fill="#084482"/>
<path d="M202.08 361.088C201.66 361.088 201.257 360.921 200.96 360.624C200.663 360.327 200.496 359.924 200.496 359.504V232.921C200.496 232.484 200.67 232.065 200.979 231.756C201.288 231.447 201.707 231.273 202.144 231.273C202.581 231.273 203 231.447 203.309 231.756C203.617 232.065 203.791 232.484 203.791 232.921V359.393C203.808 359.621 203.775 359.85 203.695 360.065C203.614 360.279 203.489 360.473 203.326 360.634C203.164 360.796 202.968 360.92 202.753 360.998C202.538 361.076 202.308 361.107 202.08 361.088Z" fill="#084482"/>
<path d="M231.481 361.088C231.06 361.088 230.658 360.921 230.36 360.624C230.063 360.327 229.897 359.924 229.897 359.504V232.921C229.897 232.484 230.07 232.065 230.379 231.756C230.688 231.447 231.107 231.273 231.544 231.273C231.981 231.273 232.4 231.447 232.709 231.756C233.018 232.065 233.191 232.484 233.191 232.921V359.393C233.208 359.621 233.175 359.85 233.095 360.065C233.015 360.279 232.889 360.473 232.726 360.634C232.564 360.796 232.368 360.92 232.153 360.998C231.938 361.076 231.709 361.107 231.481 361.088Z" fill="#084482"/>
<path d="M231.481 243.201H202.08C201.865 243.201 201.652 243.159 201.453 243.076C201.254 242.994 201.073 242.873 200.921 242.721C200.769 242.569 200.648 242.388 200.566 242.189C200.483 241.99 200.441 241.777 200.441 241.562C200.441 241.346 200.483 241.133 200.566 240.934C200.648 240.735 200.769 240.555 200.921 240.402C201.073 240.25 201.254 240.129 201.453 240.047C201.652 239.965 201.865 239.922 202.08 239.922H231.481C231.696 239.922 231.909 239.965 232.108 240.047C232.307 240.129 232.488 240.25 232.64 240.402C232.792 240.555 232.913 240.735 232.995 240.934C233.078 241.133 233.12 241.346 233.12 241.562C233.12 241.777 233.078 241.99 232.995 242.189C232.913 242.388 232.792 242.569 232.64 242.721C232.488 242.873 232.307 242.994 232.108 243.076C231.909 243.159 231.696 243.201 231.481 243.201Z" fill="#084482"/>
<path d="M231.481 257.664H202.08C201.643 257.664 201.224 257.49 200.915 257.181C200.606 256.872 200.433 256.453 200.433 256.016C200.433 255.579 200.606 255.16 200.915 254.851C201.224 254.543 201.643 254.369 202.08 254.369H231.481C231.917 254.369 232.337 254.543 232.645 254.851C232.954 255.16 233.128 255.579 233.128 256.016C233.128 256.453 232.954 256.872 232.645 257.181C232.337 257.49 231.917 257.664 231.481 257.664Z" fill="#084482"/>
<path d="M231.481 272.111H202.08C201.645 272.111 201.228 271.938 200.921 271.63C200.613 271.323 200.441 270.906 200.441 270.471C200.441 270.036 200.613 269.619 200.921 269.312C201.228 269.004 201.645 268.832 202.08 268.832H231.481C231.915 268.832 232.332 269.004 232.64 269.312C232.947 269.619 233.12 270.036 233.12 270.471C233.12 270.906 232.947 271.323 232.64 271.63C232.332 271.938 231.915 272.111 231.481 272.111Z" fill="#084482"/>
<path d="M231.481 286.526H202.08C201.643 286.526 201.224 286.352 200.915 286.043C200.606 285.734 200.433 285.315 200.433 284.878C200.433 284.441 200.606 284.022 200.915 283.713C201.224 283.404 201.643 283.231 202.08 283.231H231.481C231.917 283.231 232.337 283.404 232.645 283.713C232.954 284.022 233.128 284.441 233.128 284.878C233.128 285.315 232.954 285.734 232.645 286.043C232.337 286.352 231.917 286.526 231.481 286.526Z" fill="#084482"/>
<path d="M231.481 301.02H202.08C201.645 301.02 201.228 300.847 200.921 300.54C200.613 300.232 200.441 299.815 200.441 299.38C200.441 298.946 200.613 298.529 200.921 298.221C201.228 297.914 201.645 297.741 202.08 297.741H231.481C231.915 297.741 232.332 297.914 232.64 298.221C232.947 298.529 233.12 298.946 233.12 299.38C233.12 299.815 232.947 300.232 232.64 300.54C232.332 300.847 231.915 301.02 231.481 301.02Z" fill="#084482"/>
<path d="M231.481 315.482H202.08C201.643 315.482 201.224 315.309 200.915 315C200.606 314.691 200.433 314.272 200.433 313.835C200.433 313.398 200.606 312.979 200.915 312.67C201.224 312.361 201.643 312.188 202.08 312.188H231.481C231.917 312.188 232.337 312.361 232.645 312.67C232.954 312.979 233.128 313.398 233.128 313.835C233.128 314.272 232.954 314.691 232.645 315C232.337 315.309 231.917 315.482 231.481 315.482Z" fill="#084482"/>
<path d="M231.481 329.929H202.08C201.645 329.929 201.228 329.756 200.921 329.449C200.613 329.141 200.441 328.724 200.441 328.29C200.441 327.855 200.613 327.438 200.921 327.13C201.228 326.823 201.645 326.65 202.08 326.65H231.481C231.915 326.65 232.332 326.823 232.64 327.13C232.947 327.438 233.12 327.855 233.12 328.29C233.12 328.724 232.947 329.141 232.64 329.449C232.332 329.756 231.915 329.929 231.481 329.929Z" fill="#084482"/>
<path d="M231.481 344.392H202.08C201.643 344.392 201.224 344.218 200.915 343.909C200.606 343.6 200.433 343.181 200.433 342.744C200.433 342.307 200.606 341.888 200.915 341.579C201.224 341.27 201.643 341.097 202.08 341.097H231.481C231.917 341.097 232.337 341.27 232.645 341.579C232.954 341.888 233.128 342.307 233.128 342.744C233.128 343.181 232.954 343.6 232.645 343.909C232.337 344.218 231.917 344.392 231.481 344.392Z" fill="#084482"/>
<path d="M162.035 239.004C161.615 239.004 161.212 238.837 160.915 238.54C160.618 238.242 160.451 237.84 160.451 237.419V231.083C160.451 230.646 160.624 230.227 160.933 229.918C161.242 229.609 161.661 229.436 162.098 229.436C162.535 229.436 162.954 229.609 163.263 229.918C163.572 230.227 163.746 230.646 163.746 231.083V237.419C163.746 237.639 163.702 237.855 163.614 238.056C163.527 238.257 163.399 238.438 163.238 238.587C163.077 238.736 162.887 238.85 162.68 238.921C162.473 238.993 162.253 239.021 162.035 239.004Z" fill="#084482"/>
<path d="M165.235 235.835H158.898C158.464 235.835 158.047 235.663 157.739 235.355C157.432 235.048 157.259 234.631 157.259 234.196C157.259 233.761 157.432 233.344 157.739 233.037C158.047 232.729 158.464 232.556 158.898 232.556H165.235C165.67 232.556 166.087 232.729 166.394 233.037C166.701 233.344 166.874 233.761 166.874 234.196C166.874 234.631 166.701 235.048 166.394 235.355C166.087 235.663 165.67 235.835 165.235 235.835Z" fill="#084482"/>
<path d="M309.781 10.2636C309.361 10.2636 308.958 10.0967 308.661 9.79963C308.364 9.50256 308.197 9.09964 308.197 8.67952V2.34324C308.197 1.90842 308.37 1.4914 308.677 1.18393C308.985 0.87646 309.402 0.703735 309.837 0.703735C310.271 0.703735 310.689 0.87646 310.996 1.18393C311.303 1.4914 311.476 1.90842 311.476 2.34324V8.67952C311.477 8.89721 311.432 9.11268 311.346 9.31247C311.259 9.51226 311.133 9.69209 310.974 9.84073C310.815 9.98937 310.627 10.1036 310.422 10.1764C310.216 10.2491 309.998 10.2788 309.781 10.2636Z" fill="#084482"/>
<path d="M312.981 7.06379H306.645C306.208 7.06379 305.789 6.89022 305.48 6.58126C305.171 6.27231 304.997 5.85328 304.997 5.41636C304.997 4.97943 305.171 4.5604 305.48 4.25145C305.789 3.94249 306.208 3.76892 306.645 3.76892H312.981C313.418 3.76892 313.837 3.94249 314.146 4.25145C314.455 4.5604 314.628 4.97943 314.628 5.41636C314.628 5.85328 314.455 6.27231 314.146 6.58126C313.837 6.89022 313.418 7.06379 312.981 7.06379Z" fill="#084482"/>
<path d="M361.565 341.43C361.412 341.452 361.257 341.452 361.105 341.43L354.959 339.671C354.748 339.619 354.55 339.523 354.377 339.391C354.204 339.259 354.061 339.092 353.955 338.902C353.85 338.712 353.785 338.502 353.764 338.285C353.743 338.069 353.767 337.85 353.834 337.644C353.887 337.432 353.982 337.234 354.114 337.062C354.247 336.889 354.413 336.745 354.603 336.64C354.794 336.534 355.003 336.469 355.22 336.448C355.437 336.428 355.655 336.452 355.862 336.519L362.008 338.277C362.428 338.336 362.808 338.559 363.063 338.898C363.319 339.237 363.429 339.663 363.37 340.083C363.312 340.503 363.088 340.883 362.75 341.138C362.411 341.394 361.985 341.504 361.565 341.445V341.43Z" fill="#084482"/>
<path d="M357.604 343.631C357.457 343.654 357.308 343.654 357.161 343.631C356.95 343.579 356.752 343.484 356.579 343.351C356.406 343.219 356.263 343.053 356.157 342.862C356.052 342.672 355.986 342.462 355.966 342.246C355.945 342.029 355.969 341.811 356.036 341.604L357.794 335.442C357.914 335.022 358.196 334.666 358.578 334.454C358.959 334.241 359.41 334.189 359.83 334.309C360.25 334.429 360.605 334.711 360.818 335.092C361.03 335.474 361.082 335.925 360.963 336.345L359.204 342.507C359.102 342.846 358.889 343.141 358.599 343.345C358.309 343.549 357.958 343.65 357.604 343.631Z" fill="#084482"/>
<path d="M329.202 148.22C329.055 148.243 328.905 148.243 328.758 148.22L322.596 146.462C322.176 146.342 321.821 146.061 321.608 145.679C321.396 145.297 321.344 144.847 321.464 144.427C321.583 144.006 321.865 143.651 322.247 143.439C322.629 143.226 323.079 143.174 323.499 143.294L329.645 145.052C330.066 145.111 330.445 145.334 330.701 145.673C330.956 146.012 331.067 146.438 331.008 146.858C330.949 147.278 330.726 147.658 330.387 147.913C330.048 148.169 329.622 148.279 329.202 148.22Z" fill="#084482"/>
<path d="M325.289 150.422C325.142 150.443 324.993 150.443 324.846 150.422C324.635 150.37 324.437 150.274 324.264 150.142C324.091 150.01 323.948 149.843 323.842 149.653C323.737 149.463 323.671 149.253 323.651 149.036C323.63 148.82 323.654 148.601 323.721 148.395L325.479 142.248C325.539 142.04 325.638 141.846 325.773 141.677C325.907 141.507 326.074 141.366 326.263 141.261C326.452 141.155 326.659 141.088 326.874 141.064C327.089 141.039 327.307 141.056 327.515 141.116C327.723 141.175 327.917 141.275 328.087 141.409C328.256 141.544 328.398 141.71 328.503 141.899C328.608 142.088 328.675 142.296 328.7 142.511C328.725 142.726 328.707 142.943 328.647 143.151L326.889 149.298C326.787 149.637 326.574 149.932 326.284 150.136C325.993 150.34 325.643 150.441 325.289 150.422Z" fill="#084482"/>
<path d="M341.073 103.815C349.987 94.9005 349.987 80.4476 341.073 71.5333C332.159 62.619 317.706 62.619 308.791 71.5333C299.877 80.4476 299.877 94.9005 308.791 103.815C317.706 112.729 332.159 112.729 341.073 103.815Z" fill="#00AEFF"/>
<path d="M324.941 104.769C334.38 104.769 342.033 97.1169 342.033 87.6772C342.033 78.2374 334.38 70.585 324.941 70.585C315.501 70.585 307.849 78.2374 307.849 87.6772C307.849 97.1169 315.501 104.769 324.941 104.769Z" fill="white"/>
<path d="M324.941 105.435C321.429 105.435 317.995 104.393 315.075 102.442C312.155 100.491 309.879 97.7174 308.535 94.4727C307.191 91.2279 306.839 87.6575 307.525 84.2129C308.21 80.7683 309.901 77.6042 312.384 75.1208C314.868 72.6374 318.032 70.9461 321.476 70.261C324.921 69.5758 328.492 69.9274 331.736 71.2714C334.981 72.6155 337.754 74.8915 339.706 77.8117C341.657 80.7319 342.698 84.1651 342.698 87.6772C342.694 92.3854 340.822 96.8997 337.493 100.229C334.163 103.558 329.649 105.43 324.941 105.435ZM324.941 71.2504C321.688 71.2504 318.508 72.2151 315.804 74.0225C313.1 75.83 310.992 78.3989 309.748 81.4043C308.504 84.4098 308.179 87.7166 308.815 90.9066C309.451 94.0966 311.019 97.0264 313.32 99.3253C315.621 101.624 318.552 103.189 321.743 103.822C324.933 104.454 328.24 104.126 331.244 102.879C334.248 101.633 336.815 99.5226 338.62 96.8165C340.425 94.1105 341.387 90.9299 341.383 87.6772C341.379 83.3191 339.645 79.1409 336.562 76.0607C333.479 72.9805 329.299 71.2504 324.941 71.2504Z" fill="#084482"/>
<path d="M324.941 88.3425C324.764 88.3425 324.595 88.2724 324.47 88.1476C324.346 88.0228 324.275 87.8536 324.275 87.6772V79.0123C324.275 78.8358 324.346 78.6666 324.47 78.5419C324.595 78.4171 324.764 78.347 324.941 78.347C325.117 78.347 325.286 78.4171 325.411 78.5419C325.536 78.6666 325.606 78.8358 325.606 79.0123V87.7089C325.598 87.8798 325.524 88.041 325.4 88.1589C325.276 88.2769 325.112 88.3427 324.941 88.3425Z" fill="#084482"/>
<path d="M335.142 88.3425H324.941C324.764 88.3425 324.595 88.2724 324.47 88.1476C324.346 88.0228 324.275 87.8536 324.275 87.6771C324.275 87.5905 324.293 87.5047 324.326 87.4249C324.36 87.345 324.409 87.2727 324.471 87.2122C324.533 87.1517 324.607 87.1042 324.687 87.0725C324.768 87.0408 324.854 87.0255 324.941 87.0277H335.142C335.229 87.0255 335.315 87.0408 335.396 87.0725C335.476 87.1042 335.55 87.1517 335.612 87.2122C335.674 87.2727 335.723 87.345 335.757 87.4249C335.79 87.5047 335.808 87.5905 335.808 87.6771C335.808 87.8536 335.737 88.0228 335.613 88.1476C335.488 88.2724 335.319 88.3425 335.142 88.3425Z" fill="#084482"/>
<path d="M325.622 72.5176C325.622 72.6523 325.582 72.784 325.507 72.896C325.432 73.008 325.326 73.0953 325.201 73.1469C325.077 73.1984 324.94 73.2119 324.808 73.1856C324.676 73.1594 324.554 73.0945 324.459 72.9992C324.364 72.904 324.299 72.7826 324.273 72.6505C324.246 72.5183 324.26 72.3814 324.312 72.2569C324.363 72.1325 324.45 72.0261 324.562 71.9512C324.674 71.8764 324.806 71.8365 324.941 71.8365C325.03 71.8365 325.119 71.8541 325.201 71.8883C325.284 71.9225 325.359 71.9727 325.422 72.036C325.486 72.0992 325.536 72.1743 325.57 72.2569C325.604 72.3396 325.622 72.4281 325.622 72.5176Z" fill="#084482"/>
<path d="M335.665 77.6341C336.041 77.6341 336.346 77.3292 336.346 76.953C336.346 76.5768 336.041 76.2719 335.665 76.2719C335.289 76.2719 334.984 76.5768 334.984 76.953C334.984 77.3292 335.289 77.6341 335.665 77.6341Z" fill="#084482"/>
<path d="M340.1 88.3583C339.966 88.3583 339.834 88.3184 339.722 88.2435C339.61 88.1687 339.523 88.0623 339.471 87.9378C339.419 87.8134 339.406 87.6764 339.432 87.5443C339.459 87.4122 339.523 87.2908 339.619 87.1955C339.714 87.1003 339.835 87.0354 339.967 87.0091C340.1 86.9828 340.237 86.9963 340.361 87.0479C340.485 87.0994 340.592 87.1867 340.667 87.2988C340.742 87.4108 340.781 87.5425 340.781 87.6772C340.784 87.7672 340.768 87.8568 340.734 87.9404C340.701 88.024 340.65 88.1 340.587 88.1636C340.523 88.2273 340.447 88.2774 340.364 88.3109C340.28 88.3444 340.19 88.3605 340.1 88.3583Z" fill="#084482"/>
<path d="M335.665 99.0825C336.041 99.0825 336.346 98.7775 336.346 98.4013C336.346 98.0251 336.041 97.7202 335.665 97.7202C335.289 97.7202 334.984 98.0251 334.984 98.4013C334.984 98.7775 335.289 99.0825 335.665 99.0825Z" fill="#084482"/>
<path d="M324.26 102.853C324.256 102.717 324.294 102.584 324.367 102.47C324.44 102.356 324.545 102.266 324.669 102.212C324.793 102.158 324.931 102.142 325.064 102.167C325.197 102.191 325.32 102.255 325.417 102.349C325.513 102.444 325.58 102.565 325.607 102.698C325.635 102.83 325.622 102.968 325.571 103.094C325.52 103.219 325.433 103.326 325.321 103.402C325.208 103.477 325.076 103.518 324.941 103.518C324.763 103.518 324.592 103.448 324.465 103.324C324.337 103.2 324.264 103.03 324.26 102.853Z" fill="#084482"/>
<path d="M313.741 97.9261C313.869 97.8022 314.039 97.7329 314.217 97.7329C314.394 97.7329 314.565 97.8022 314.692 97.9261C314.783 98.0197 314.846 98.1382 314.87 98.2669C314.895 98.3956 314.881 98.5287 314.83 98.6494C314.779 98.7702 314.694 98.8733 314.585 98.9458C314.476 99.0184 314.348 99.057 314.217 99.057C314.086 99.057 313.958 99.0184 313.848 98.9458C313.739 98.8733 313.654 98.7702 313.603 98.6494C313.553 98.5287 313.539 98.3956 313.563 98.2669C313.588 98.1382 313.65 98.0197 313.741 97.9261Z" fill="#084482"/>
<path d="M309.781 88.3583C310.157 88.3583 310.462 88.0534 310.462 87.6772C310.462 87.301 310.157 86.996 309.781 86.996C309.405 86.996 309.1 87.301 309.1 87.6772C309.1 88.0534 309.405 88.3583 309.781 88.3583Z" fill="#084482"/>
<path d="M314.692 76.4778C314.756 76.5411 314.806 76.6163 314.841 76.6993C314.875 76.7822 314.893 76.8711 314.893 76.9609C314.893 77.0507 314.875 77.1396 314.841 77.2226C314.806 77.3055 314.756 77.3807 314.692 77.444C314.565 77.5679 314.394 77.6372 314.217 77.6372C314.039 77.6372 313.869 77.5679 313.741 77.444C313.678 77.3807 313.627 77.3055 313.593 77.2226C313.558 77.1396 313.54 77.0507 313.54 76.9609C313.54 76.8711 313.558 76.7822 313.593 76.6993C313.627 76.6163 313.678 76.5411 313.741 76.4778C313.869 76.3539 314.039 76.2846 314.217 76.2846C314.394 76.2846 314.565 76.3539 314.692 76.4778Z" fill="#084482"/>
<path d="M401.467 334.856H390.886V345.437H401.467V334.856Z" fill="white"/>
<path d="M402.291 346.277H390.062V334.048H402.291V346.277ZM391.709 344.693H400.644V335.632H391.709V344.693Z" fill="#084482"/>
<path d="M414.868 337.216H405.237C405.151 337.218 405.065 337.203 404.984 337.171C404.903 337.139 404.83 337.092 404.768 337.031C404.706 336.971 404.657 336.899 404.623 336.819C404.589 336.739 404.572 336.653 404.572 336.566C404.572 336.39 404.642 336.221 404.767 336.096C404.892 335.971 405.061 335.901 405.237 335.901H414.821C414.997 335.901 415.167 335.971 415.291 336.096C415.416 336.221 415.486 336.39 415.486 336.566C415.486 336.733 415.422 336.894 415.307 337.015C415.192 337.136 415.035 337.208 414.868 337.216Z" fill="#084482"/>
<path d="M418.464 344.439H405.522C405.016 344.439 404.62 344.154 404.62 343.79C404.62 343.425 405.016 343.124 405.522 343.124H418.464C418.955 343.124 419.367 343.41 419.367 343.79C419.367 344.17 418.955 344.439 418.464 344.439Z" fill="#084482"/>
<path d="M423.185 340.606H405.237C405.151 340.608 405.065 340.593 404.984 340.561C404.903 340.529 404.83 340.482 404.768 340.421C404.706 340.361 404.657 340.288 404.623 340.209C404.589 340.129 404.572 340.043 404.572 339.956C404.572 339.869 404.589 339.782 404.623 339.702C404.656 339.621 404.705 339.548 404.767 339.486C404.829 339.424 404.902 339.375 404.983 339.342C405.063 339.308 405.15 339.291 405.237 339.291H423.137C423.225 339.291 423.311 339.308 423.392 339.342C423.473 339.375 423.546 339.424 423.608 339.486C423.67 339.548 423.719 339.621 423.752 339.702C423.785 339.782 423.803 339.869 423.803 339.956C423.803 340.123 423.739 340.284 423.624 340.405C423.509 340.526 423.352 340.598 423.185 340.606Z" fill="#084482"/>
<path d="M158.471 190.119H169.052V179.537H158.471V190.119Z" fill="white"/>
<path d="M169.876 190.943H157.647V178.714H169.876V190.943ZM159.279 189.359H168.229V180.393H159.279V189.359Z" fill="#084482"/>
<path d="M145.069 181.866H154.574C154.75 181.866 154.92 181.796 155.044 181.671C155.169 181.546 155.239 181.377 155.239 181.201C155.239 181.024 155.169 180.855 155.044 180.73C154.92 180.606 154.75 180.535 154.574 180.535H145.069C144.893 180.535 144.724 180.606 144.599 180.73C144.474 180.855 144.404 181.024 144.404 181.201C144.404 181.377 144.474 181.546 144.599 181.671C144.724 181.796 144.893 181.866 145.069 181.866Z" fill="#084482"/>
<path d="M141.458 189.121H154.416C154.907 189.121 155.303 188.82 155.303 188.456C155.303 188.091 154.907 187.79 154.416 187.79H141.458C140.967 187.79 140.571 188.091 140.571 188.456C140.571 188.82 140.967 189.121 141.458 189.121Z" fill="#084482"/>
<path d="M136.753 185.288H154.653C154.83 185.288 154.999 185.218 155.124 185.093C155.248 184.968 155.318 184.799 155.318 184.622C155.318 184.446 155.248 184.277 155.124 184.152C154.999 184.027 154.83 183.957 154.653 183.957H136.753C136.577 183.957 136.407 184.027 136.283 184.152C136.158 184.277 136.088 184.446 136.088 184.622C136.088 184.799 136.158 184.968 136.283 185.093C136.407 185.218 136.577 185.288 136.753 185.288Z" fill="#084482"/>
<path d="M173.757 272.095C173.266 269.101 171.143 261.355 166.47 263.81C158.898 267.77 168.054 282.819 158.898 285.496C158.407 279.492 157.124 275.358 154.416 275.595C148.808 276.102 150.297 289.123 150.218 292.054C150.139 294.985 149.98 297.963 149.838 300.972C143.264 302.16 144.563 284.989 140.555 282.613C134.329 278.922 133.015 287.143 133.189 290.945C133.474 297.424 135.217 305.202 141.284 308.592C143.807 310.03 146.664 310.778 149.568 310.762C149.465 315.857 149.815 320.951 150.614 325.985H150.725L154.416 326.191C154.45 326.5 154.598 326.786 154.83 326.994C155.063 327.202 155.363 327.317 155.675 327.317C155.986 327.317 156.287 327.202 156.519 326.994C156.752 326.786 156.899 326.5 156.934 326.191C156.934 323.023 158.898 307.752 159.12 294.763C162.248 294.999 165.358 294.118 167.896 292.276C174.169 287.714 174.913 279.239 173.757 272.095Z" fill="#6CDD6C"/>
<path d="M155.651 328.155C155.278 328.159 154.911 328.06 154.59 327.87C154.2 327.641 153.912 327.273 153.782 326.84L151.073 326.698H150.075L149.933 326.08C149.156 321.246 148.801 316.354 148.871 311.459C146.088 311.322 143.376 310.535 140.951 309.162C134.472 305.503 132.761 297.234 132.492 290.945C132.365 288.427 132.904 283.183 135.739 281.441C136.561 281.026 137.484 280.851 138.4 280.938C139.317 281.025 140.19 281.37 140.919 281.932C142.852 283.088 143.58 286.684 144.436 290.692C145.592 296.22 146.638 300.196 149.188 300.196V298.834C149.283 296.489 149.394 294.161 149.457 291.88C149.457 291.436 149.457 290.755 149.457 289.916C149.283 284.783 148.95 275.247 154.336 274.756C154.739 274.717 155.145 274.761 155.529 274.887C155.914 275.012 156.268 275.216 156.57 275.485C158.154 276.752 159.041 279.667 159.5 284.387C162.906 282.882 162.669 278.938 162.526 274.423C162.383 269.909 162.114 265.141 166.122 263.05C166.675 262.718 167.301 262.528 167.945 262.497C168.589 262.467 169.231 262.597 169.813 262.875C173.155 264.555 174.311 271.113 174.422 271.841C175.309 277.322 175.69 287.318 168.292 292.751C165.809 294.518 162.833 295.46 159.786 295.444C159.595 303.919 158.724 313.265 158.201 319.49C157.9 322.658 157.679 325.098 157.663 326.111C157.654 326.437 157.56 326.754 157.39 327.032C157.221 327.31 156.982 327.538 156.697 327.696C156.397 327.943 156.035 328.102 155.651 328.155ZM151.216 325.304L155.128 325.51V326.127C155.128 326.46 155.239 326.555 155.318 326.603C155.422 326.661 155.54 326.691 155.659 326.691C155.778 326.691 155.896 326.661 156 326.603C156.078 326.559 156.144 326.495 156.189 326.416C156.233 326.338 156.256 326.249 156.253 326.159C156.253 325.082 156.491 322.706 156.792 319.427C157.378 313.09 158.281 303.348 158.376 294.715V293.923L159.168 294.05C162.103 294.234 165.012 293.401 167.405 291.69C174.216 286.7 173.836 277.291 172.997 272.142C172.632 269.877 171.413 265.299 169.147 264.222C168.763 264.042 168.339 263.962 167.915 263.99C167.491 264.017 167.082 264.152 166.724 264.38C163.556 266.075 163.682 270.146 163.872 274.455C164.078 279.207 164.316 284.577 159.025 286.13L158.217 286.367V285.512C157.726 279.524 156.633 277.386 155.714 276.641C155.376 276.353 154.938 276.21 154.495 276.245C150.424 276.625 150.74 285.623 150.883 289.963C150.883 290.834 150.883 291.547 150.883 292.022C150.883 294.303 150.709 296.632 150.598 298.992L150.487 301.527L149.933 301.622C145.434 302.43 144.167 296.363 143.042 291.009C142.313 287.555 141.569 284.007 140.175 283.167C139.656 282.746 139.03 282.477 138.367 282.39C137.704 282.304 137.03 282.403 136.42 282.676C134.329 283.928 133.743 288.363 133.854 290.866C134.124 296.806 135.676 304.584 141.6 307.926C144.01 309.311 146.742 310.038 149.521 310.033L150.297 309.954V310.73C150.189 315.605 150.496 320.481 151.216 325.304Z" fill="#50AA50"/>
<path d="M166.502 360.977H139.763C139.092 360.992 138.439 360.767 137.919 360.343C137.399 359.919 137.048 359.324 136.927 358.664L130.86 327.49L133.379 326.999L139.446 358.173C139.458 358.246 139.497 358.312 139.556 358.356C139.616 358.4 139.69 358.42 139.763 358.411H166.502C166.575 358.42 166.649 358.4 166.708 358.356C166.767 358.312 166.807 358.246 166.819 358.173L172.854 326.999L175.373 327.49L169.353 358.664C169.232 359.327 168.879 359.924 168.356 360.348C167.833 360.772 167.175 360.995 166.502 360.977Z" fill="#084482"/>
<path d="M131.193 317.383H175.547C176.307 317.383 176.925 318.207 176.925 319.237V325.985C176.925 327.014 176.307 327.854 175.547 327.854H131.193C130.433 327.854 129.815 327.014 129.815 325.985V319.237C129.752 318.207 130.369 317.383 131.193 317.383Z" fill="#00AEFF"/>
<path d="M175.547 328.551H131.193C130.582 328.475 130.024 328.166 129.637 327.687C129.25 327.208 129.064 326.598 129.118 325.985V319.237C129.047 318.615 129.225 317.99 129.614 317.5C130.003 317.01 130.571 316.694 131.193 316.623H175.547C176.158 316.691 176.718 316.996 177.107 317.473C177.495 317.95 177.68 318.561 177.622 319.173V325.921C177.66 326.231 177.636 326.544 177.552 326.844C177.467 327.144 177.325 327.424 177.132 327.668C176.939 327.913 176.7 328.116 176.428 328.268C176.156 328.42 175.856 328.516 175.547 328.551ZM131.193 318.08C130.876 318.08 130.512 318.571 130.512 319.237V325.985C130.512 326.65 130.876 327.141 131.193 327.141H175.547C175.88 327.141 176.228 326.65 176.228 325.985V319.237C176.228 318.571 175.88 318.08 175.547 318.08H131.193Z" fill="#084482"/>
<path d="M175.547 328.424H131.193C130.613 328.353 130.083 328.058 129.717 327.603C129.35 327.147 129.175 326.567 129.229 325.985V319.237C129.175 318.655 129.35 318.074 129.717 317.619C130.083 317.164 130.613 316.869 131.193 316.797H175.547C176.129 316.865 176.661 317.159 177.028 317.615C177.396 318.071 177.569 318.654 177.511 319.237V325.985C177.569 326.568 177.396 327.15 177.028 327.606C176.661 328.063 176.129 328.357 175.547 328.424ZM131.193 317.969C130.813 317.969 130.401 318.492 130.401 319.237V325.985C130.401 326.745 130.813 327.268 131.193 327.268H175.547C175.927 327.268 176.339 326.745 176.339 325.985V319.237C176.339 318.492 175.927 317.969 175.547 317.969H131.193Z" fill="#00AEFF"/>
<path d="M175.547 329.137H131.193C130.42 329.069 129.707 328.697 129.208 328.103C128.709 327.509 128.466 326.742 128.532 325.969V319.221C128.466 318.448 128.709 317.681 129.208 317.087C129.707 316.493 130.42 316.121 131.193 316.053H175.547C176.32 316.121 177.033 316.493 177.532 317.087C178.031 317.681 178.274 318.448 178.208 319.221V325.969C178.274 326.742 178.031 327.509 177.532 328.103C177.033 328.697 176.32 329.069 175.547 329.137ZM131.193 318.666C131.07 318.83 131.008 319.032 131.019 319.237V325.985C131.006 326.094 131.019 326.205 131.054 326.309C131.09 326.413 131.148 326.508 131.225 326.587H175.547C175.547 326.587 175.642 326.365 175.642 326.001V319.253C175.651 319.145 175.64 319.036 175.607 318.933C175.574 318.829 175.522 318.733 175.452 318.651L131.193 318.666Z" fill="#084482"/>
<path d="M135.945 290.882L138.131 291.151C138.907 291.262 138.907 290.026 138.131 289.931L135.945 289.694C135.153 289.599 135.169 290.834 135.945 290.929V290.882Z" fill="#50AA50"/>
<path d="M139.193 281.187V282.28C139.193 282.444 139.258 282.601 139.374 282.717C139.489 282.833 139.647 282.898 139.81 282.898C139.974 282.898 140.131 282.833 140.247 282.717C140.363 282.601 140.428 282.444 140.428 282.28V281.187C140.428 281.023 140.363 280.866 140.247 280.75C140.131 280.635 139.974 280.569 139.81 280.569C139.647 280.569 139.489 280.635 139.374 280.75C139.258 280.866 139.193 281.023 139.193 281.187Z" fill="#50AA50"/>
<path d="M143.454 292.482L145.038 291.595C145.16 291.504 145.244 291.372 145.275 291.223C145.306 291.074 145.28 290.919 145.204 290.787C145.127 290.656 145.005 290.557 144.861 290.511C144.716 290.464 144.559 290.472 144.42 290.533L142.836 291.42C142.714 291.511 142.629 291.643 142.599 291.792C142.568 291.941 142.593 292.096 142.67 292.228C142.746 292.359 142.869 292.458 143.013 292.504C143.158 292.551 143.315 292.543 143.454 292.482Z" fill="#50AA50"/>
<path d="M137.133 306.659L139.05 305.313C139.699 304.869 139.05 303.729 138.432 304.251L136.5 305.598C135.866 306.057 136.5 307.182 137.133 306.659Z" fill="#50AA50"/>
<path d="M132.508 296.03L133.886 296.569C134.615 296.87 134.931 295.666 134.203 295.381L132.84 294.842C132.096 294.557 131.779 295.745 132.508 296.03Z" fill="#50AA50"/>
<path d="M141.458 301.796C141.586 301.807 141.71 301.845 141.822 301.908C141.934 301.971 142.031 302.057 142.107 302.16C142.598 302.778 143.47 301.907 142.979 301.289C142.782 301.061 142.539 300.878 142.266 300.752C141.993 300.626 141.695 300.561 141.394 300.56C140.602 300.56 140.602 301.733 141.394 301.796H141.458Z" fill="#50AA50"/>
<path d="M144.151 307.594C144.02 308.403 144.124 309.234 144.452 309.986C144.769 310.714 145.83 310.081 145.513 309.368C145.321 308.908 145.261 308.403 145.339 307.911C145.466 307.134 144.277 306.802 144.151 307.594Z" fill="#50AA50"/>
<path d="M150.598 307.816L151.675 308.101C151.829 308.135 151.991 308.109 152.126 308.028C152.262 307.946 152.361 307.816 152.404 307.664C152.447 307.512 152.429 307.349 152.356 307.21C152.282 307.07 152.157 306.963 152.008 306.913L150.915 306.628C150.763 306.603 150.608 306.635 150.48 306.719C150.351 306.802 150.258 306.93 150.218 307.078C150.179 307.226 150.196 307.384 150.266 307.52C150.336 307.656 150.454 307.762 150.598 307.816Z" fill="#50AA50"/>
<path d="M154.526 295.697C154.494 296.032 154.543 296.371 154.67 296.682C154.797 296.994 154.998 297.271 155.255 297.487C155.857 297.994 156.744 297.139 156.126 296.616C155.984 296.514 155.875 296.373 155.81 296.21C155.746 296.047 155.729 295.869 155.762 295.697C155.762 294.905 154.59 294.921 154.526 295.697Z" fill="#50AA50"/>
<path d="M152.958 286.89C152.798 287.117 152.687 287.376 152.632 287.649C152.578 287.921 152.581 288.203 152.641 288.474C152.784 289.25 153.972 288.918 153.829 288.141C153.809 288.031 153.815 287.917 153.849 287.809C153.882 287.702 153.94 287.604 154.02 287.524C154.495 286.874 153.433 286.256 152.958 286.89Z" fill="#50AA50"/>
<path d="M159.706 290.502V291.595C159.706 291.758 159.771 291.916 159.887 292.031C160.003 292.147 160.16 292.212 160.324 292.212C160.488 292.212 160.645 292.147 160.761 292.031C160.877 291.916 160.942 291.758 160.942 291.595V290.502C160.942 290.338 160.877 290.181 160.761 290.065C160.645 289.949 160.488 289.884 160.324 289.884C160.16 289.884 160.003 289.949 159.887 290.065C159.771 290.181 159.706 290.338 159.706 290.502Z" fill="#50AA50"/>
<path d="M148.253 288.569L149.077 289.108C149.743 289.551 150.36 288.49 149.695 288.046L148.887 287.508C148.222 287.064 147.604 288.126 148.253 288.569Z" fill="#50AA50"/>
<path d="M150.313 278.336C150.544 278.596 150.683 278.924 150.709 279.271C150.709 280.063 151.992 280.063 151.944 279.271C151.904 278.6 151.636 277.962 151.184 277.465C150.677 276.863 149.806 277.75 150.313 278.336Z" fill="#50AA50"/>
<path d="M153.37 274.613V276.197C153.37 276.361 153.435 276.518 153.551 276.634C153.667 276.75 153.824 276.815 153.988 276.815C154.152 276.815 154.309 276.75 154.425 276.634C154.541 276.518 154.606 276.361 154.606 276.197V274.613C154.606 274.45 154.541 274.292 154.425 274.177C154.309 274.061 154.152 273.996 153.988 273.996C153.824 273.996 153.667 274.061 153.551 274.177C153.435 274.292 153.37 274.45 153.37 274.613Z" fill="#50AA50"/>
<path d="M161.053 281.853L161.575 282.423C162.13 282.993 163.001 282.122 162.447 281.552L161.924 280.981C161.37 280.411 160.498 281.282 161.053 281.853Z" fill="#50AA50"/>
<path d="M162.273 274.518L163.857 274.613C164.649 274.613 164.649 273.425 163.857 273.378L162.273 273.283C161.48 273.283 161.48 274.471 162.273 274.518Z" fill="#50AA50"/>
<path d="M164.015 264.65L165.108 265.743C165.226 265.844 165.378 265.898 165.534 265.892C165.69 265.886 165.838 265.821 165.948 265.711C166.058 265.601 166.123 265.453 166.128 265.297C166.134 265.142 166.081 264.989 165.979 264.871L164.886 263.778C164.768 263.677 164.616 263.624 164.46 263.629C164.304 263.635 164.157 263.7 164.046 263.81C163.936 263.92 163.872 264.068 163.866 264.224C163.86 264.379 163.913 264.531 164.015 264.65Z" fill="#50AA50"/>
<path d="M168.767 261.481V263.398C168.767 263.562 168.832 263.719 168.948 263.835C169.064 263.951 169.221 264.016 169.385 264.016C169.549 264.016 169.706 263.951 169.822 263.835C169.938 263.719 170.003 263.562 170.003 263.398V261.481C170.003 261.318 169.938 261.16 169.822 261.045C169.706 260.929 169.549 260.864 169.385 260.864C169.221 260.864 169.064 260.929 168.948 261.045C168.832 261.16 168.767 261.318 168.767 261.481Z" fill="#50AA50"/>
<path d="M171.001 272.998L171.539 272.174C171.983 271.524 170.906 270.907 170.478 271.556L169.939 272.38C169.496 273.045 170.557 273.663 171.001 272.998Z" fill="#50AA50"/>
<path d="M166.819 285.1L168.197 284.577C168.926 284.292 168.609 283.088 167.864 283.389L166.486 283.912C165.757 284.197 166.074 285.385 166.819 285.1Z" fill="#50AA50"/>
<path d="M172.268 283.357L173.646 283.072C174.422 282.914 174.09 281.726 173.313 281.884L171.951 282.169C171.175 282.328 171.492 283.516 172.268 283.357Z" fill="#50AA50"/>
<path d="M168.767 289.124V289.409C168.767 289.572 168.832 289.73 168.948 289.845C169.064 289.961 169.221 290.026 169.385 290.026C169.549 290.026 169.706 289.961 169.822 289.845C169.938 289.73 170.003 289.572 170.003 289.409V289.124C170.003 288.96 169.938 288.803 169.822 288.687C169.706 288.571 169.549 288.506 169.385 288.506C169.221 288.506 169.064 288.571 168.948 288.687C168.832 288.803 168.767 288.96 168.767 289.124Z" fill="#50AA50"/>
<path d="M158.122 307.99L158.946 307.451C159.595 307.008 158.946 305.946 158.312 306.39L157.504 306.928C156.839 307.372 157.504 308.433 158.122 307.99Z" fill="#50AA50"/>
<path d="M157.457 312.536C157.922 312.085 158.503 311.772 159.136 311.633C159.912 311.459 159.58 310.271 158.819 310.445C157.981 310.649 157.211 311.07 156.586 311.665C156.015 312.219 156.887 313.09 157.457 312.536Z" fill="#50AA50"/>
<path d="M152.388 313.281L152.673 313.819C153.022 314.532 154.083 313.819 153.734 313.201L153.449 312.647C153.085 311.95 152.024 312.568 152.388 313.281Z" fill="#50AA50"/>
<path d="M147.699 314.595C148.345 314.954 149.101 315.062 149.822 314.896C150.598 314.738 150.265 313.55 149.505 313.708C149.101 313.808 148.675 313.746 148.317 313.534C147.62 313.17 146.986 314.231 147.699 314.595Z" fill="#50AA50"/>
<path d="M157.885 302.921L160.34 302.604C161.116 302.509 161.132 301.273 160.34 301.368L157.885 301.685C157.108 301.78 157.093 303.016 157.885 302.921Z" fill="#50AA50"/>
<path d="M268.231 248.92L308.007 212.961C309.971 211.187 307.072 208.288 305.108 210.047L265.332 246.021C263.368 247.795 266.267 250.694 268.231 248.92Z" fill="#D7E7FF"/>
<path d="M313.187 267.263L352.963 231.305C354.927 229.531 352.013 226.632 350.048 228.39L310.288 264.349C308.324 266.123 311.239 269.022 313.187 267.247V267.263Z" fill="#D7E7FF"/>
<path d="M264.334 280.855L347.72 199.544C349.621 197.707 346.706 194.792 344.821 196.645L261.435 277.956C259.534 279.793 262.449 282.708 264.334 280.855Z" fill="#D7E7FF"/>
<path d="M210.175 122.622C210.794 122.572 211.372 122.291 211.793 121.835C212.214 121.378 212.448 120.78 212.448 120.159C212.448 119.537 212.214 118.939 211.793 118.483C211.372 118.026 210.794 117.745 210.175 117.695C209.556 117.745 208.978 118.026 208.557 118.483C208.135 118.939 207.901 119.537 207.901 120.159C207.901 120.78 208.135 121.378 208.557 121.835C208.978 122.291 209.556 122.572 210.175 122.622Z" fill="#084482"/>
<path d="M477.408 71.0919C478.027 71.0423 478.605 70.7612 479.026 70.3047C479.447 69.8483 479.681 69.2499 479.681 68.6287C479.681 68.0075 479.447 67.4092 479.026 66.9527C478.605 66.4962 478.027 66.2152 477.408 66.1655C476.788 66.2152 476.211 66.4962 475.789 66.9527C475.368 67.4092 475.134 68.0075 475.134 68.6287C475.134 69.2499 475.368 69.8483 475.789 70.3047C476.211 70.7612 476.788 71.0423 477.408 71.0919Z" fill="#084482"/>
<path d="M112.707 283.627C113.362 283.627 113.991 283.366 114.454 282.903C114.918 282.44 115.178 281.811 115.178 281.156C115.178 280.5 114.918 279.872 114.454 279.408C113.991 278.945 113.362 278.684 112.707 278.684C112.052 278.684 111.423 278.945 110.96 279.408C110.496 279.872 110.236 280.5 110.236 281.156C110.236 281.811 110.496 282.44 110.96 282.903C111.423 283.366 112.052 283.627 112.707 283.627Z" fill="#084482"/>
<path d="M348.211 47.0616C348.83 47.0119 349.408 46.7308 349.829 46.2743C350.25 45.8179 350.484 45.2195 350.484 44.5983C350.484 43.9772 350.25 43.3788 349.829 42.9223C349.408 42.4659 348.83 42.1848 348.211 42.1351C347.592 42.1848 347.014 42.4659 346.593 42.9223C346.171 43.3788 345.937 43.9772 345.937 44.5983C345.937 45.2195 346.171 45.8179 346.593 46.2743C347.014 46.7308 347.592 47.0119 348.211 47.0616Z" fill="#084482"/>
</svg>
