<svg width="124" height="26" viewBox="0 0 124 26" fill="none" xmlns="http://www.w3.org/2000/svg">
<path d="M109.609 10C107.388 10 105.206 11.3896 103.522 12.8507C103.943 13.3115 104.345 13.7898 104.726 14.2845C104.907 14.5231 105.17 14.8458 105.495 15.2116C106.793 14.0722 108.318 13.0631 109.609 13.0631C111.803 13.0631 113.588 14.85 113.588 17.047C113.588 19.2439 111.803 21.0308 109.609 21.0308C107.156 21.0308 103.853 17.398 102.889 16.124C102.417 15.4975 98.1433 10 93.7262 10C89.8455 10 86.688 13.1619 86.688 17.048C86.688 20.9341 89.8455 24.095 93.7262 24.095C95.8833 24.095 98.0016 22.7831 99.6644 21.3683C99.2015 20.8692 98.7619 20.3491 98.347 19.8094C98.1375 19.5369 97.9191 19.2716 97.692 19.0137C96.4281 20.0985 94.9691 21.0308 93.7262 21.0308C91.5323 21.0308 89.7479 19.2439 89.7479 17.047C89.7479 14.85 91.5323 13.0631 93.7262 13.0631C96.1804 13.0631 99.4828 16.6959 100.446 17.9699C100.919 18.5964 105.192 24.0939 109.609 24.0939C111.475 24.092 113.264 23.3489 114.583 22.0277C115.902 20.7066 116.644 18.9153 116.646 17.047C116.645 15.1785 115.903 13.387 114.583 12.0658C113.264 10.7447 111.475 10.0017 109.609 10Z" fill="#00AEFF"/>
<path d="M2.60725 4.624V5.608H2.82325V4.864H9.61525V24.736H8.89525V25H13.6953V24.736H12.9513V4.864H19.6713V5.608H19.8873V4.624H2.60725ZM27.0889 22.816C25.9609 24.04 24.4489 24.784 22.7209 24.784C20.0569 24.784 20.0329 20.584 20.0329 19.048C20.0329 17.128 20.5129 13.24 22.7209 13.24C24.4489 13.24 25.9609 13.96 27.0889 15.184V22.816ZM30.7129 13.216V13H26.5609V13.216H27.0889V14.872C25.9609 13.72 24.4249 13.024 22.7209 13.024C22.3609 13.024 22.0729 13.072 21.5209 13.192C18.7369 13.768 16.7449 16.216 16.7449 19.024C16.7449 21.784 18.6409 24.184 21.5689 24.88C21.9769 24.952 22.3369 25 22.7209 25C24.4489 25 25.9609 24.304 27.0889 23.128V24.76H26.5609V24.976H30.7129V24.76H30.1849V13.216H30.7129ZM36.1765 4.816H36.7285V4.6H32.5765V4.816H33.1285V24.76H32.5765V25H36.7285V24.76H36.1765V4.816ZM50.2478 19.096C50.2238 18.136 50.1278 17.728 50.0318 17.416C49.3838 15.04 47.4638 13.576 45.2798 13.072C44.9198 13.024 44.5838 13 44.2718 13C44.0798 13 43.8398 13.024 43.6238 13.048C43.5038 13.072 43.3838 13.072 43.2638 13.072C40.2158 13.696 38.2478 16.192 38.2478 18.976C38.2478 21.76 40.1198 24.184 42.8078 24.832C43.0958 24.904 43.8158 25 44.2718 25C46.3838 25 48.2798 23.944 49.4318 22.048H49.1678C48.1118 23.8 46.2878 24.784 44.2718 24.784C41.7038 24.784 41.5598 20.704 41.5598 19.096H46.9598H50.2478ZM41.5598 18.904C41.6558 17.344 41.8238 16.24 42.1838 15.112C42.2078 15.136 42.7118 13.384 43.9838 13.216H44.2718H44.5358C45.3278 13.312 45.8318 14.008 46.0958 14.56C46.6478 15.808 46.9358 17.296 46.9358 18.904H41.5598ZM64.4532 24.784V18.568C64.2612 15.568 62.1492 13.096 59.1012 13.096C57.6852 13.096 56.3892 13.648 55.4532 14.584V13.264H55.9812V13.024H51.7572V13.264H52.2852V24.808H51.7572V25H55.9812V24.808H55.4532V14.848C56.3412 13.912 57.6612 13.312 59.1012 13.312C61.1652 13.312 61.4532 16.624 61.5252 17.968V24.784H60.9972V25H65.0292V24.784H64.4532ZM72.5854 12.28V12.736H69.5134V8.368H70.0414V8.176H65.9614V8.368H66.4654V20.992H66.4894C66.4894 23.224 67.9294 25 69.6574 25C71.1454 25 72.4414 23.512 72.7054 21.496H72.5134C72.3454 22.72 71.7694 23.584 71.0974 23.584C70.2574 23.584 69.5134 22.336 69.5134 20.92V12.928H72.5854V13.36H72.8014V12.28H72.5854ZM81.2933 14.536H78.1013V4.864H81.3173C84.4613 6.856 84.8213 13 81.2933 14.536ZM81.6293 4.648H74.1893V4.864H74.8853V24.736H74.1893V25H78.6533V24.736H78.1013V14.776H81.2933C88.2293 15.064 88.4933 4.744 81.6293 4.648Z" fill="white"/>
<path d="M121.734 5.816H122.286V5.6H118.134V5.816H118.686V25.76H118.134V26H122.286V25.76H121.734V5.816Z" fill="white"/>
</svg>
